<svg id="visual" viewBox="0 0 960 300" width="960" height="300" xmlns="http://www.w3.org/2000/svg" xmlns:xlink="http://www.w3.org/1999/xlink" version="1.1"><rect x="0" y="0" width="960" height="300" fill="#ffffff"></rect><path d="M0 82L22.8 84.8C45.7 87.7 91.3 93.3 137 97.5C182.7 101.7 228.3 104.3 274 104.3C319.7 104.3 365.3 101.7 411.2 96.3C457 91 503 83 548.8 84.3C594.7 85.7 640.3 96.3 686 99.7C731.7 103 777.3 99 823 96.7C868.7 94.3 914.3 93.7 937.2 93.3L960 93L960 0L937.2 0C914.3 0 868.7 0 823 0C777.3 0 731.7 0 686 0C640.3 0 594.7 0 548.8 0C503 0 457 0 411.2 0C365.3 0 319.7 0 274 0C228.3 0 182.7 0 137 0C91.3 0 45.7 0 22.8 0L0 0Z" fill="#a30eb7"></path><path d="M0 71L22.8 69.2C45.7 67.3 91.3 63.7 137 67.2C182.7 70.7 228.3 81.3 274 85.8C319.7 90.3 365.3 88.7 411.2 85.5C457 82.3 503 77.7 548.8 77.8C594.7 78 640.3 83 686 81C731.7 79 777.3 70 823 70C868.7 70 914.3 79 937.2 83.5L960 88L960 0L937.2 0C914.3 0 868.7 0 823 0C777.3 0 731.7 0 686 0C640.3 0 594.7 0 548.8 0C503 0 457 0 411.2 0C365.3 0 319.7 0 274 0C228.3 0 182.7 0 137 0C91.3 0 45.7 0 22.8 0L0 0Z" fill="#bc1ea9"></path><path d="M0 64L22.8 66.3C45.7 68.7 91.3 73.3 137 70.2C182.7 67 228.3 56 274 54.8C319.7 53.7 365.3 62.3 411.2 63C457 63.7 503 56.3 548.8 53.8C594.7 51.3 640.3 53.7 686 58.3C731.7 63 777.3 70 823 69C868.7 68 914.3 59 937.2 54.5L960 50L960 0L937.2 0C914.3 0 868.7 0 823 0C777.3 0 731.7 0 686 0C640.3 0 594.7 0 548.8 0C503 0 457 0 411.2 0C365.3 0 319.7 0 274 0C228.3 0 182.7 0 137 0C91.3 0 45.7 0 22.8 0L0 0Z" fill="#cd349d"></path><path d="M0 28L22.8 32C45.7 36 91.3 44 137 44.2C182.7 44.3 228.3 36.7 274 35.8C319.7 35 365.3 41 411.2 41.3C457 41.7 503 36.3 548.8 34.2C594.7 32 640.3 33 686 33C731.7 33 777.3 32 823 35.3C868.7 38.7 914.3 46.3 937.2 50.2L960 54L960 0L937.2 0C914.3 0 868.7 0 823 0C777.3 0 731.7 0 686 0C640.3 0 594.7 0 548.8 0C503 0 457 0 411.2 0C365.3 0 319.7 0 274 0C228.3 0 182.7 0 137 0C91.3 0 45.7 0 22.8 0L0 0Z" fill="#d94a94"></path><path d="M0 32L22.8 32.2C45.7 32.3 91.3 32.7 137 31.7C182.7 30.7 228.3 28.3 274 26.7C319.7 25 365.3 24 411.2 24.7C457 25.3 503 27.7 548.8 28C594.7 28.3 640.3 26.7 686 25.7C731.7 24.7 777.3 24.3 823 23C868.7 21.7 914.3 19.3 937.2 18.2L960 17L960 0L937.2 0C914.3 0 868.7 0 823 0C777.3 0 731.7 0 686 0C640.3 0 594.7 0 548.8 0C503 0 457 0 411.2 0C365.3 0 319.7 0 274 0C228.3 0 182.7 0 137 0C91.3 0 45.7 0 22.8 0L0 0Z" fill="#e0608f"></path></svg>